<?xml version="1.0" encoding="utf-8"?>
<!-- Generator: Adobe Illustrator 22.1.0, SVG Export Plug-In . SVG Version: 6.00 Build 0)  -->
<svg version="1.1" id="Layer_1" xmlns="http://www.w3.org/2000/svg" xmlns:xlink="http://www.w3.org/1999/xlink" x="0px" y="0px"
	 viewBox="0 0 50 50" style="enable-background:new 0 0 50 50;" xml:space="preserve">
<style type="text/css">
	.st0{fill:#FFFF66;}
</style>
<g>
	<path class="st0" d="M25,9.6l3.3,10.1l0.7,2l2.1,0l10.5,0.2l-8.5,6.8l-1.6,1.3l0.6,1.9l3,10.5l-8.3-6.1L25,34.9l-1.8,1.3l-8.3,6.1
		l3-10.5l0.6-1.9l-1.6-1.3l-8.5-6.8l10.5-0.2l2.1,0l0.7-2L25,9.6 M25,0l-6.2,18.7L0,19.1L15,31L9.5,50L25,38.7L40.5,50L35,31
		l15-11.9l-18.8-0.4L25,0L25,0z"/>
</g>
</svg>
